<svg xmlns="http://www.w3.org/2000/svg" viewBox="0 0 1929.03 617.41"><defs><style>.cls-1{fill:none;stroke-width:7px;}.cls-1,.cls-3{stroke:#f3eddb;stroke-linecap:round;stroke-linejoin:round;}.cls-2,.cls-3{fill:#f3eddb;}.cls-3{stroke-width:0.25px;}</style></defs><title>città</title><g id="Livello_2" data-name="Livello 2"><g id="Verdino"><g id="Livello_1_copia_2" data-name="Livello 1 copia 2"><polyline class="cls-1" points="3.5 613.3 246.13 613.3 246.13 355.26 374.95 355.26 374.95 613.47 409.9 613.47 409.9 190.46 624.82 190.46 624.96 244.37 624.96 612.49 710 612.49 710 295.01 800.26 295.01 955.32 295.01 955.32 613.4 984.96 613.4 984.96 3.5 1104.17 3.5 1104.17 613.9 1167.29 613.9 1167.29 186.91 1360.24 186.91 1360.24 613.9 1478.97 613.9 1478.97 368.55 1478.97 295.9 1651.75 295.01 1651.75 612.59 1768.71 612.59 1820.99 612.59 1925.53 612.59"/><rect class="cls-2" x="259.77" y="380.96" width="19.05" height="24.71" rx="3.48" ry="3.48"/><path class="cls-2" d="M302.36,383a1.48,1.48,0,0,1,1.48,1.48v17.75a1.48,1.48,0,0,1-1.48,1.48H290.27a1.48,1.48,0,0,1-1.48-1.48V384.44a1.48,1.48,0,0,1,1.48-1.48h12.09m0-2H290.27a3.49,3.49,0,0,0-3.48,3.48v17.75a3.49,3.49,0,0,0,3.48,3.48h12.09a3.49,3.49,0,0,0,3.48-3.48V384.44a3.49,3.49,0,0,0-3.48-3.48Z"/><rect class="cls-2" x="313.81" y="380.96" width="19.05" height="24.71" rx="3.48" ry="3.48"/><rect class="cls-2" x="340.84" y="380.96" width="19.05" height="24.71" rx="3.48" ry="3.48"/><rect class="cls-2" x="259.77" y="427.82" width="19.05" height="24.71" rx="3.48" ry="3.48"/><rect class="cls-2" x="286.79" y="427.82" width="19.05" height="24.71" rx="3.48" ry="3.48"/><rect class="cls-2" x="313.81" y="427.82" width="19.05" height="24.71" rx="3.48" ry="3.48"/><rect class="cls-2" x="340.84" y="427.82" width="19.05" height="24.71" rx="3.48" ry="3.48"/><rect class="cls-2" x="259.77" y="474.69" width="19.05" height="24.71" rx="3.48" ry="3.48"/><rect class="cls-2" x="286.79" y="474.69" width="19.05" height="24.71" rx="3.48" ry="3.48"/><rect class="cls-2" x="313.81" y="474.69" width="19.05" height="24.71" rx="3.48" ry="3.48"/><rect class="cls-2" x="340.84" y="474.69" width="19.05" height="24.71" rx="3.48" ry="3.48"/><rect class="cls-2" x="259.77" y="521.55" width="19.05" height="24.71" rx="3.48" ry="3.48"/><rect class="cls-2" x="286.79" y="521.55" width="19.05" height="24.71" rx="3.48" ry="3.48"/><rect class="cls-2" x="313.81" y="521.55" width="19.05" height="24.71" rx="3.48" ry="3.48"/><rect class="cls-2" x="340.84" y="521.55" width="19.05" height="24.71" rx="3.48" ry="3.48"/><rect class="cls-3" x="430.77" y="227.67" width="23.35" height="30.29" rx="3.48" ry="3.48"/><rect class="cls-3" x="580.88" y="227.67" width="23.35" height="30.29" rx="3.48" ry="3.48"/><rect class="cls-3" x="468.3" y="227.67" width="23.35" height="30.29" rx="3.48" ry="3.48"/><rect class="cls-3" x="505.82" y="227.67" width="23.35" height="30.29" rx="3.48" ry="3.48"/><rect class="cls-3" x="543.35" y="227.67" width="23.35" height="30.29" rx="3.48" ry="3.48"/><rect class="cls-3" x="430.77" y="271.97" width="23.35" height="30.29" rx="3.48" ry="3.48"/><rect class="cls-3" x="580.88" y="271.97" width="23.35" height="30.29" rx="3.48" ry="3.48"/><rect class="cls-3" x="468.3" y="271.97" width="23.35" height="30.29" rx="3.48" ry="3.48"/><rect class="cls-3" x="505.82" y="271.97" width="23.35" height="30.29" rx="3.48" ry="3.48"/><rect class="cls-3" x="543.35" y="271.97" width="23.35" height="30.29" rx="3.48" ry="3.48"/><rect class="cls-3" x="430.77" y="360.58" width="23.35" height="30.29" rx="3.48" ry="3.48"/><rect class="cls-3" x="580.88" y="360.58" width="23.35" height="30.29" rx="3.48" ry="3.48"/><rect class="cls-3" x="468.3" y="360.58" width="23.35" height="30.29" rx="3.48" ry="3.48"/><rect class="cls-3" x="505.82" y="360.58" width="23.35" height="30.29" rx="3.48" ry="3.48"/><rect class="cls-3" x="543.35" y="360.58" width="23.35" height="30.29" rx="3.48" ry="3.48"/><rect class="cls-3" x="430.77" y="316.28" width="23.35" height="30.29" rx="3.48" ry="3.48"/><rect class="cls-3" x="580.88" y="316.28" width="23.35" height="30.29" rx="3.48" ry="3.48"/><rect class="cls-3" x="468.3" y="316.28" width="23.35" height="30.29" rx="3.48" ry="3.48"/><rect class="cls-3" x="505.82" y="316.28" width="23.35" height="30.29" rx="3.48" ry="3.48"/><path class="cls-2" d="M563.22,319.28a.49.49,0,0,1,.48.48v23.33a.49.49,0,0,1-.48.48H546.83a.49.49,0,0,1-.48-.48V319.76a.49.49,0,0,1,.48-.48h16.39m0-3H546.83a3.49,3.49,0,0,0-3.48,3.48v23.33a3.5,3.5,0,0,0,3.48,3.48h16.39a3.5,3.5,0,0,0,3.48-3.48V319.76a3.49,3.49,0,0,0-3.48-3.48Z"/><rect class="cls-3" x="430.77" y="404.88" width="23.35" height="30.29" rx="3.48" ry="3.48"/><rect class="cls-3" x="580.88" y="404.88" width="23.35" height="30.29" rx="3.48" ry="3.48"/><rect class="cls-3" x="468.3" y="404.88" width="23.35" height="30.29" rx="3.48" ry="3.48"/><rect class="cls-3" x="505.82" y="404.88" width="23.35" height="30.29" rx="3.48" ry="3.48"/><rect class="cls-3" x="543.35" y="404.88" width="23.35" height="30.29" rx="3.48" ry="3.48"/><rect class="cls-3" x="430.77" y="493.49" width="23.35" height="30.29" rx="3.48" ry="3.48"/><rect class="cls-3" x="580.88" y="493.49" width="23.35" height="30.29" rx="3.48" ry="3.48"/><rect class="cls-3" x="468.3" y="493.49" width="23.35" height="30.29" rx="3.48" ry="3.48"/><rect class="cls-3" x="505.82" y="493.49" width="23.35" height="30.29" rx="3.48" ry="3.48"/><rect class="cls-3" x="543.35" y="493.49" width="23.35" height="30.29" rx="3.48" ry="3.48"/><rect class="cls-3" x="430.77" y="449.18" width="23.35" height="30.29" rx="3.48" ry="3.48"/><rect class="cls-3" x="580.88" y="449.18" width="23.35" height="30.29" rx="3.48" ry="3.48"/><rect class="cls-3" x="468.3" y="449.18" width="23.35" height="30.29" rx="3.48" ry="3.48"/><rect class="cls-3" x="505.82" y="449.18" width="23.35" height="30.29" rx="3.48" ry="3.48"/><rect class="cls-3" x="543.35" y="449.18" width="23.35" height="30.29" rx="3.48" ry="3.48"/><rect class="cls-3" x="730.26" y="320.71" width="23.35" height="30.29" rx="3.48" ry="3.48"/><rect class="cls-3" x="905.17" y="320.71" width="23.35" height="30.29" rx="3.48" ry="3.48"/><rect class="cls-3" x="773.99" y="320.71" width="23.35" height="30.29" rx="3.48" ry="3.48"/><rect class="cls-3" x="817.71" y="320.71" width="23.35" height="30.29" rx="3.48" ry="3.48"/><rect class="cls-3" x="861.44" y="320.71" width="23.35" height="30.29" rx="3.48" ry="3.48"/><rect class="cls-3" x="730.26" y="377.41" width="23.35" height="30.29" rx="3.48" ry="3.48"/><rect class="cls-3" x="905.17" y="377.41" width="23.35" height="30.29" rx="3.48" ry="3.48"/><rect class="cls-3" x="773.99" y="377.41" width="23.35" height="30.29" rx="3.48" ry="3.48"/><rect class="cls-3" x="817.71" y="377.41" width="23.35" height="30.29" rx="3.48" ry="3.48"/><rect class="cls-3" x="861.44" y="377.41" width="23.35" height="30.29" rx="3.48" ry="3.48"/><rect class="cls-3" x="730.26" y="435.01" width="23.35" height="30.29" rx="3.48" ry="3.48"/><rect class="cls-3" x="905.17" y="435.01" width="23.35" height="30.29" rx="3.48" ry="3.48"/><rect class="cls-3" x="773.99" y="435.01" width="23.35" height="30.29" rx="3.48" ry="3.48"/><rect class="cls-3" x="817.71" y="435.01" width="23.35" height="30.29" rx="3.48" ry="3.48"/><rect class="cls-3" x="861.44" y="435.01" width="23.35" height="30.29" rx="3.48" ry="3.48"/><rect class="cls-3" x="730.26" y="491.71" width="23.35" height="30.29" rx="3.48" ry="3.48"/><rect class="cls-3" x="905.17" y="491.71" width="23.35" height="30.29" rx="3.48" ry="3.48"/><rect class="cls-3" x="773.99" y="491.71" width="23.35" height="30.29" rx="3.48" ry="3.48"/><rect class="cls-3" x="817.71" y="491.71" width="23.35" height="30.29" rx="3.48" ry="3.48"/><rect class="cls-3" x="861.44" y="491.71" width="23.35" height="30.29" rx="3.48" ry="3.48"/><rect class="cls-3" x="730.26" y="547.54" width="23.35" height="30.29" rx="3.48" ry="3.48"/><rect class="cls-3" x="905.17" y="547.54" width="23.35" height="30.29" rx="3.48" ry="3.48"/><rect class="cls-3" x="773.99" y="547.54" width="23.35" height="30.29" rx="3.48" ry="3.48"/><rect class="cls-3" x="817.71" y="547.54" width="23.35" height="30.29" rx="3.48" ry="3.48"/><rect class="cls-3" x="861.44" y="547.54" width="23.35" height="30.29" rx="3.48" ry="3.48"/><rect class="cls-3" x="1023.51" y="248.94" width="15.87" height="20.58" rx="3.48" ry="3.48"/><rect class="cls-3" x="997.9" y="248.94" width="15.87" height="20.58" rx="3.48" ry="3.48"/><rect class="cls-3" x="1049.12" y="248.94" width="15.87" height="20.58" rx="3.48" ry="3.48"/><rect class="cls-3" x="1074.74" y="248.94" width="15.87" height="20.58" rx="3.48" ry="3.48"/><rect class="cls-3" x="1023.51" y="218.81" width="15.87" height="20.58" rx="3.48" ry="3.48"/><rect class="cls-3" x="997.9" y="218.81" width="15.87" height="20.58" rx="3.48" ry="3.48"/><rect class="cls-3" x="1049.12" y="218.81" width="15.87" height="20.58" rx="3.48" ry="3.48"/><rect class="cls-3" x="1074.74" y="218.81" width="15.87" height="20.58" rx="3.48" ry="3.48"/><rect class="cls-3" x="1023.51" y="187.8" width="15.87" height="20.58" rx="3.48" ry="3.48"/><rect class="cls-3" x="997.9" y="187.8" width="15.87" height="20.58" rx="3.48" ry="3.48"/><rect class="cls-3" x="1049.12" y="187.8" width="15.87" height="20.58" rx="3.48" ry="3.48"/><rect class="cls-3" x="1074.74" y="187.8" width="15.87" height="20.58" rx="3.48" ry="3.48"/><rect class="cls-3" x="1023.51" y="157.67" width="15.87" height="20.58" rx="3.48" ry="3.48"/><rect class="cls-3" x="997.9" y="157.67" width="15.87" height="20.58" rx="3.48" ry="3.48"/><rect class="cls-3" x="1049.12" y="157.67" width="15.87" height="20.58" rx="3.48" ry="3.48"/><rect class="cls-3" x="1074.74" y="157.67" width="15.87" height="20.58" rx="3.48" ry="3.48"/><rect class="cls-3" x="1023.51" y="126.66" width="15.87" height="20.58" rx="3.48" ry="3.48"/><rect class="cls-3" x="997.9" y="126.66" width="15.87" height="20.58" rx="3.48" ry="3.48"/><rect class="cls-3" x="1049.12" y="126.66" width="15.87" height="20.58" rx="3.48" ry="3.48"/><rect class="cls-3" x="1074.74" y="126.66" width="15.87" height="20.58" rx="3.48" ry="3.48"/><rect class="cls-3" x="1023.51" y="96.54" width="15.87" height="20.58" rx="3.48" ry="3.48"/><rect class="cls-3" x="997.9" y="96.54" width="15.87" height="20.58" rx="3.48" ry="3.48"/><rect class="cls-3" x="1049.12" y="96.54" width="15.87" height="20.58" rx="3.48" ry="3.48"/><rect class="cls-3" x="1074.74" y="96.54" width="15.87" height="20.58" rx="3.48" ry="3.48"/><rect class="cls-3" x="1023.51" y="65.52" width="15.87" height="20.58" rx="3.48" ry="3.48"/><rect class="cls-3" x="997.9" y="65.52" width="15.87" height="20.58" rx="3.48" ry="3.48"/><rect class="cls-3" x="1049.12" y="65.52" width="15.87" height="20.58" rx="3.48" ry="3.48"/><rect class="cls-3" x="1074.74" y="65.52" width="15.87" height="20.58" rx="3.48" ry="3.48"/><rect class="cls-3" x="1023.51" y="35.4" width="15.87" height="20.58" rx="3.48" ry="3.48"/><rect class="cls-3" x="997.9" y="35.4" width="15.87" height="20.58" rx="3.48" ry="3.48"/><rect class="cls-3" x="1049.12" y="35.4" width="15.87" height="20.58" rx="3.48" ry="3.48"/><rect class="cls-3" x="1074.74" y="35.4" width="15.87" height="20.58" rx="3.48" ry="3.48"/><rect class="cls-3" x="1023.51" y="493.49" width="15.87" height="20.58" rx="3.48" ry="3.48"/><rect class="cls-3" x="997.9" y="493.49" width="15.87" height="20.58" rx="3.48" ry="3.48"/><rect class="cls-3" x="1049.12" y="493.49" width="15.87" height="20.58" rx="3.48" ry="3.48"/><rect class="cls-3" x="1074.74" y="493.49" width="15.87" height="20.58" rx="3.48" ry="3.48"/><rect class="cls-3" x="1023.51" y="463.36" width="15.87" height="20.58" rx="3.48" ry="3.48"/><rect class="cls-3" x="997.9" y="463.36" width="15.87" height="20.58" rx="3.48" ry="3.48"/><rect class="cls-3" x="1049.12" y="463.36" width="15.87" height="20.58" rx="3.48" ry="3.48"/><rect class="cls-3" x="1074.74" y="463.36" width="15.87" height="20.58" rx="3.48" ry="3.48"/><rect class="cls-3" x="1023.51" y="432.35" width="15.87" height="20.58" rx="3.48" ry="3.48"/><rect class="cls-3" x="997.9" y="432.35" width="15.87" height="20.58" rx="3.48" ry="3.48"/><rect class="cls-3" x="1049.12" y="432.35" width="15.87" height="20.58" rx="3.48" ry="3.48"/><rect class="cls-3" x="1074.74" y="432.35" width="15.87" height="20.58" rx="3.48" ry="3.48"/><rect class="cls-3" x="1023.51" y="402.22" width="15.87" height="20.58" rx="3.48" ry="3.48"/><rect class="cls-3" x="997.9" y="402.22" width="15.87" height="20.58" rx="3.48" ry="3.48"/><rect class="cls-3" x="1049.12" y="402.22" width="15.87" height="20.58" rx="3.48" ry="3.48"/><rect class="cls-3" x="1074.74" y="402.22" width="15.87" height="20.58" rx="3.48" ry="3.48"/><rect class="cls-3" x="1023.51" y="371.21" width="15.87" height="20.58" rx="3.48" ry="3.48"/><rect class="cls-3" x="997.9" y="371.21" width="15.87" height="20.58" rx="3.48" ry="3.48"/><rect class="cls-3" x="1049.12" y="371.21" width="15.87" height="20.58" rx="3.48" ry="3.48"/><rect class="cls-3" x="1074.74" y="371.21" width="15.87" height="20.58" rx="3.48" ry="3.48"/><rect class="cls-3" x="1023.51" y="341.09" width="15.87" height="20.58" rx="3.48" ry="3.48"/><rect class="cls-3" x="997.9" y="341.09" width="15.87" height="20.58" rx="3.48" ry="3.48"/><rect class="cls-3" x="1049.12" y="341.09" width="15.87" height="20.58" rx="3.48" ry="3.48"/><rect class="cls-3" x="1074.74" y="341.09" width="15.87" height="20.58" rx="3.48" ry="3.48"/><rect class="cls-3" x="1023.51" y="310.07" width="15.87" height="20.58" rx="3.48" ry="3.48"/><rect class="cls-3" x="997.9" y="310.07" width="15.87" height="20.58" rx="3.48" ry="3.48"/><rect class="cls-3" x="1049.12" y="310.07" width="15.87" height="20.58" rx="3.48" ry="3.48"/><rect class="cls-3" x="1074.74" y="310.07" width="15.87" height="20.58" rx="3.48" ry="3.48"/><rect class="cls-3" x="1023.51" y="279.95" width="15.87" height="20.58" rx="3.48" ry="3.48"/><rect class="cls-3" x="997.9" y="279.95" width="15.87" height="20.58" rx="3.48" ry="3.48"/><rect class="cls-3" x="1049.12" y="279.95" width="15.87" height="20.58" rx="3.48" ry="3.48"/><rect class="cls-3" x="1074.74" y="279.95" width="15.87" height="20.58" rx="3.48" ry="3.48"/><rect class="cls-3" x="1023.51" y="525.38" width="15.87" height="20.58" rx="3.48" ry="3.48"/><rect class="cls-3" x="997.9" y="525.38" width="15.87" height="20.58" rx="3.48" ry="3.48"/><rect class="cls-3" x="1049.12" y="525.38" width="15.87" height="20.58" rx="3.48" ry="3.48"/><rect class="cls-3" x="1074.74" y="525.38" width="15.87" height="20.58" rx="3.48" ry="3.48"/><rect class="cls-3" x="1287.14" y="266.37" width="19.05" height="24.65" rx="3.48" ry="3.48" transform="translate(2593.33 557.39) rotate(180)"/><path class="cls-2" d="M1269.49,268.37a1.47,1.47,0,0,1,1.47,1.48v17.69a1.47,1.47,0,0,1-1.47,1.48h-12.1a1.48,1.48,0,0,1-1.48-1.48V269.85a1.48,1.48,0,0,1,1.48-1.48h12.1m0-2h-12.1a3.5,3.5,0,0,0-3.48,3.48v17.69a3.49,3.49,0,0,0,3.48,3.48h12.1a3.48,3.48,0,0,0,3.47-3.48V269.85a3.49,3.49,0,0,0-3.47-3.48Z"/><rect class="cls-3" x="1220.69" y="266.37" width="19.05" height="24.65" rx="3.48" ry="3.48" transform="translate(2460.43 557.39) rotate(180)"/><rect class="cls-3" x="1187.46" y="266.37" width="19.05" height="24.65" rx="3.48" ry="3.48" transform="translate(2393.97 557.39) rotate(180)"/><rect class="cls-3" x="1287.14" y="221.47" width="19.05" height="24.71" rx="3.48" ry="3.48" transform="translate(2593.33 467.65) rotate(180)"/><rect class="cls-3" x="1253.91" y="221.47" width="19.05" height="24.71" rx="3.48" ry="3.48" transform="translate(2526.88 467.65) rotate(180)"/><rect class="cls-3" x="1220.69" y="221.47" width="19.05" height="24.71" rx="3.48" ry="3.48" transform="translate(2460.43 467.65) rotate(180)"/><rect class="cls-3" x="1187.46" y="221.47" width="19.05" height="24.71" rx="3.48" ry="3.48" transform="translate(2393.97 467.65) rotate(180)"/><rect class="cls-3" x="1320.37" y="266.37" width="19.05" height="24.65" rx="3.48" ry="3.48" transform="translate(2659.79 557.39) rotate(180)"/><rect class="cls-3" x="1320.37" y="221.47" width="19.05" height="24.71" rx="3.48" ry="3.48" transform="translate(2659.79 467.65) rotate(180)"/><rect class="cls-3" x="1287.14" y="311.85" width="19.05" height="24.71" rx="3.48" ry="3.48" transform="translate(2593.33 648.41) rotate(180)"/><rect class="cls-3" x="1253.91" y="311.85" width="19.05" height="24.71" rx="3.48" ry="3.48" transform="translate(2526.88 648.41) rotate(180)"/><rect class="cls-3" x="1220.69" y="311.85" width="19.05" height="24.71" rx="3.48" ry="3.48" transform="translate(2460.43 648.41) rotate(180)"/><rect class="cls-3" x="1187.46" y="311.85" width="19.05" height="24.71" rx="3.48" ry="3.48" transform="translate(2393.97 648.41) rotate(180)"/><rect class="cls-3" x="1320.37" y="311.85" width="19.05" height="24.71" rx="3.48" ry="3.48" transform="translate(2659.79 648.41) rotate(180)"/><rect class="cls-3" x="1287.14" y="401.94" width="19.05" height="24.65" rx="3.48" ry="3.48" transform="translate(2593.33 828.52) rotate(180)"/><rect class="cls-3" x="1220.69" y="401.94" width="19.05" height="24.65" rx="3.48" ry="3.48" transform="translate(2460.43 828.52) rotate(180)"/><rect class="cls-3" x="1187.46" y="401.94" width="19.05" height="24.65" rx="3.48" ry="3.48" transform="translate(2393.97 828.52) rotate(180)"/><rect class="cls-3" x="1287.14" y="357.03" width="19.05" height="24.71" rx="3.48" ry="3.48" transform="translate(2593.33 738.78) rotate(180)"/><rect class="cls-3" x="1253.91" y="357.03" width="19.05" height="24.71" rx="3.48" ry="3.48" transform="translate(2526.88 738.78) rotate(180)"/><rect class="cls-3" x="1220.69" y="357.03" width="19.05" height="24.71" rx="3.48" ry="3.48" transform="translate(2460.43 738.78) rotate(180)"/><rect class="cls-3" x="1187.46" y="357.03" width="19.05" height="24.71" rx="3.48" ry="3.48" transform="translate(2393.97 738.78) rotate(180)"/><rect class="cls-3" x="1320.37" y="401.94" width="19.05" height="24.65" rx="3.48" ry="3.48" transform="translate(2659.79 828.52) rotate(180)"/><rect class="cls-3" x="1320.37" y="357.03" width="19.05" height="24.71" rx="3.48" ry="3.48" transform="translate(2659.79 738.78) rotate(180)"/><rect class="cls-3" x="1287.14" y="447.41" width="19.05" height="24.71" rx="3.48" ry="3.48" transform="translate(2593.33 919.54) rotate(180)"/><rect class="cls-3" x="1253.91" y="447.41" width="19.05" height="24.71" rx="3.48" ry="3.48" transform="translate(2526.88 919.54) rotate(180)"/><rect class="cls-3" x="1220.69" y="447.41" width="19.05" height="24.71" rx="3.48" ry="3.48" transform="translate(2460.43 919.54) rotate(180)"/><rect class="cls-3" x="1187.46" y="447.41" width="19.05" height="24.71" rx="3.48" ry="3.48" transform="translate(2393.97 919.54) rotate(180)"/><rect class="cls-3" x="1320.37" y="447.41" width="19.05" height="24.71" rx="3.48" ry="3.48" transform="translate(2659.79 919.54) rotate(180)"/><rect class="cls-3" x="1254.36" y="401.94" width="19.05" height="24.65" rx="3.48" ry="3.48" transform="translate(2527.77 828.52) rotate(180)"/><rect class="cls-3" x="1220.69" y="536.62" width="19.05" height="24.65" rx="3.48" ry="3.48" transform="translate(2460.43 1097.88) rotate(180)"/><rect class="cls-3" x="1187.46" y="536.62" width="19.05" height="24.65" rx="3.48" ry="3.48" transform="translate(2393.97 1097.88) rotate(180)"/><rect class="cls-3" x="1287.14" y="491.71" width="19.05" height="24.71" rx="3.48" ry="3.48" transform="translate(2593.33 1008.14) rotate(180)"/><rect class="cls-3" x="1253.91" y="491.71" width="19.05" height="24.71" rx="3.48" ry="3.48" transform="translate(2526.88 1008.14) rotate(180)"/><rect class="cls-3" x="1220.69" y="491.71" width="19.05" height="24.71" rx="3.48" ry="3.48" transform="translate(2460.43 1008.14) rotate(180)"/><rect class="cls-3" x="1187.46" y="491.71" width="19.05" height="24.71" rx="3.48" ry="3.48" transform="translate(2393.97 1008.14) rotate(180)"/><rect class="cls-3" x="1320.37" y="536.62" width="19.05" height="24.65" rx="3.48" ry="3.48" transform="translate(2659.79 1097.88) rotate(180)"/><rect class="cls-3" x="1320.37" y="491.71" width="19.05" height="24.71" rx="3.48" ry="3.48" transform="translate(2659.79 1008.14) rotate(180)"/><rect class="cls-3" x="1254.36" y="536.62" width="19.05" height="24.65" rx="3.48" ry="3.48" transform="translate(2527.77 1097.88) rotate(180)"/><path class="cls-2" d="M1303.16,538.62a1.47,1.47,0,0,1,1.47,1.48v17.69a1.47,1.47,0,0,1-1.47,1.48h-12.1a1.48,1.48,0,0,1-1.48-1.48V540.1a1.48,1.48,0,0,1,1.48-1.48h12.1m0-2h-12.1a3.49,3.49,0,0,0-3.48,3.48v17.69a3.5,3.5,0,0,0,3.48,3.48h12.1a3.49,3.49,0,0,0,3.47-3.48V540.1a3.48,3.48,0,0,0-3.47-3.48Z"/><rect class="cls-3" x="1493.15" y="314.5" width="23.35" height="30.29" rx="3.48" ry="3.48"/><rect class="cls-3" x="1533.33" y="314.5" width="23.35" height="30.29" rx="3.48" ry="3.48"/><path class="cls-2" d="M1593.39,317.5a.5.5,0,0,1,.48.48v23.33a.49.49,0,0,1-.48.48H1577a.49.49,0,0,1-.48-.48V318a.49.49,0,0,1,.48-.48h16.39m0-3H1577a3.49,3.49,0,0,0-3.48,3.48v23.33a3.48,3.48,0,0,0,3.48,3.48h16.39a3.49,3.49,0,0,0,3.48-3.48V318a3.5,3.5,0,0,0-3.48-3.48Z"/><rect class="cls-3" x="1613.7" y="314.5" width="23.35" height="30.29" rx="3.48" ry="3.48"/><rect class="cls-3" x="1493.15" y="358.81" width="23.35" height="30.29" rx="3.48" ry="3.48"/><rect class="cls-3" x="1533.33" y="358.81" width="23.35" height="30.29" rx="3.48" ry="3.48"/><rect class="cls-3" x="1573.52" y="358.81" width="23.35" height="30.29" rx="3.48" ry="3.48"/><rect class="cls-3" x="1613.7" y="358.81" width="23.35" height="30.29" rx="3.48" ry="3.48"/><rect class="cls-3" x="1493.15" y="403.11" width="23.35" height="30.29" rx="3.48" ry="3.48"/><rect class="cls-3" x="1533.33" y="403.11" width="23.35" height="30.29" rx="3.48" ry="3.48"/><rect class="cls-3" x="1573.52" y="403.11" width="23.35" height="30.29" rx="3.48" ry="3.48"/><rect class="cls-3" x="1613.7" y="403.11" width="23.35" height="30.29" rx="3.48" ry="3.48"/><path class="cls-2" d="M1513,450.41a.5.5,0,0,1,.48.48v23.33a.49.49,0,0,1-.48.48h-16.39a.49.49,0,0,1-.48-.48V450.89a.49.49,0,0,1,.48-.48H1513m0-3h-16.39a3.49,3.49,0,0,0-3.48,3.48v23.33a3.48,3.48,0,0,0,3.48,3.48H1513a3.49,3.49,0,0,0,3.48-3.48V450.89a3.5,3.5,0,0,0-3.48-3.48Z"/><rect class="cls-3" x="1533.33" y="447.41" width="23.35" height="30.29" rx="3.48" ry="3.48"/><rect class="cls-3" x="1573.52" y="447.41" width="23.35" height="30.29" rx="3.48" ry="3.48"/><rect class="cls-3" x="1613.7" y="447.41" width="23.35" height="30.29" rx="3.48" ry="3.48"/><rect class="cls-3" x="1493.15" y="491.71" width="23.35" height="30.29" rx="3.48" ry="3.48"/><rect class="cls-3" x="1533.33" y="491.71" width="23.35" height="30.29" rx="3.48" ry="3.48"/><path class="cls-2" d="M1593.39,494.71a.5.5,0,0,1,.48.48v23.34a.49.49,0,0,1-.48.47H1577a.48.48,0,0,1-.48-.47V495.19a.49.49,0,0,1,.48-.48h16.39m0-3H1577a3.49,3.49,0,0,0-3.48,3.48v23.34A3.48,3.48,0,0,0,1577,522h16.39a3.49,3.49,0,0,0,3.48-3.47V495.19a3.5,3.5,0,0,0-3.48-3.48Z"/><rect class="cls-3" x="1613.7" y="491.71" width="23.35" height="30.29" rx="3.48" ry="3.48"/><rect class="cls-3" x="1493.15" y="536.02" width="23.35" height="30.29" rx="3.48" ry="3.48"/><rect class="cls-3" x="1533.33" y="536.02" width="23.35" height="30.29" rx="3.48" ry="3.48"/><rect class="cls-3" x="1573.52" y="536.02" width="23.35" height="30.29" rx="3.48" ry="3.48"/><rect class="cls-3" x="1613.7" y="536.02" width="23.35" height="30.29" rx="3.48" ry="3.48"/></g></g></g></svg>